REM DIRINDEX 1\2,1\3,1\4,1\5
REM DIRNAME folder01,folder02,folder03,folder04,folder05
TITLE ""
FILE "1Q_j_2129-2142.mp3" MP3
  TRACK 01 AUDIO
    TITLE "3:cjc004_0086"
    INDEX 01 00:00:00
  TRACK 02 AUDIO
    TITLE "0:"
    INDEX 01 00:01:03
  TRACK 03 AUDIO
    TITLE "4:cjc004_0087"
    INDEX 01 00:01:34
  TRACK 04 AUDIO
    TITLE "0:"
    INDEX 01 00:02:63
  TRACK 05 AUDIO
    TITLE "5:cjc004_0088"
    INDEX 01 00:03:19
  TRACK 06 AUDIO
    TITLE "0:"
    INDEX 01 00:06:67
  TRACK 07 AUDIO
    TITLE "3:cjc004_0089"
    INDEX 01 00:07:52
  TRACK 08 AUDIO
    TITLE "0:"
    INDEX 01 00:09:16
  TRACK 09 AUDIO
    TITLE "4:cjc004_0090"
    INDEX 01 00:09:45
  TRACK 10 AUDIO
    TITLE "0:"
    INDEX 01 00:11:33
  TRACK 11 AUDIO
    TITLE "5:cjc004_0091"
    INDEX 01 00:11:58
  TRACK 12 AUDIO
    TITLE "0:"
    INDEX 01 00:17:02
  TRACK 13 AUDIO
    TITLE "3:cjc004_0092"
    INDEX 01 00:17:59
  TRACK 14 AUDIO
    TITLE "0:"
    INDEX 01 00:19:16
  TRACK 15 AUDIO
    TITLE "4:cjc004_0093"
    INDEX 01 00:19:48
  TRACK 16 AUDIO
    TITLE "0:"
    INDEX 01 00:20:71
  TRACK 17 AUDIO
    TITLE "5:cjc004_0094"
    INDEX 01 00:21:21
  TRACK 18 AUDIO
    TITLE "0:"
    INDEX 01 00:25:35
  TRACK 19 AUDIO
    TITLE "3:cjc004_0095"
    INDEX 01 00:26:24
  TRACK 20 AUDIO
    TITLE "0:"
    INDEX 01 00:27:55
  TRACK 21 AUDIO
    TITLE "4:cjc004_0096"
    INDEX 01 00:28:12
  TRACK 22 AUDIO
    TITLE "0:"
    INDEX 01 00:29:60
  TRACK 23 AUDIO
    TITLE "5:cjc004_0097"
    INDEX 01 00:30:14
  TRACK 24 AUDIO
    TITLE "0:"
    INDEX 01 00:33:58
  TRACK 25 AUDIO
    TITLE "3:cjc004_0098"
    INDEX 01 00:34:34
  TRACK 26 AUDIO
    TITLE "0:"
    INDEX 01 00:35:59
  TRACK 27 AUDIO
    TITLE "4:cjc004_0099"
    INDEX 01 00:36:19
  TRACK 28 AUDIO
    TITLE "0:"
    INDEX 01 00:37:26
  TRACK 29 AUDIO
    TITLE "5:cjc004_0100"
    INDEX 01 00:37:52
  TRACK 30 AUDIO
    TITLE "0:"
    INDEX 01 00:41:02
  TRACK 31 AUDIO
    TITLE "3:cjc004_0101"
    INDEX 01 00:41:53
  TRACK 32 AUDIO
    TITLE "0:"
    INDEX 01 00:43:05
  TRACK 33 AUDIO
    TITLE "4:cjc004_0102"
    INDEX 01 00:43:40
  TRACK 34 AUDIO
    TITLE "0:"
    INDEX 01 00:44:71
  TRACK 35 AUDIO
    TITLE "5:cjc004_0103"
    INDEX 01 00:45:20
  TRACK 36 AUDIO
    TITLE "0:"
    INDEX 01 00:50:72
  TRACK 37 AUDIO
    TITLE "3:cjc004_0104"
    INDEX 01 00:51:54
  TRACK 38 AUDIO
    TITLE "0:"
    INDEX 01 00:53:13
  TRACK 39 AUDIO
    TITLE "4:cjc004_0105"
    INDEX 01 00:53:41
  TRACK 40 AUDIO
    TITLE "0:"
    INDEX 01 00:54:68
  TRACK 41 AUDIO
    TITLE "5:cjc004_0106"
    INDEX 01 00:55:20
  TRACK 42 AUDIO
    TITLE "0:"
    INDEX 01 00:59:02
  TRACK 43 AUDIO
    TITLE "3:cjc004_0107"
    INDEX 01 00:59:49
  TRACK 44 AUDIO
    TITLE "0:"
    INDEX 01 01:01:05
  TRACK 45 AUDIO
    TITLE "4:cjc004_0108"
    INDEX 01 01:01:36
  TRACK 46 AUDIO
    TITLE "0:"
    INDEX 01 01:03:00
  TRACK 47 AUDIO
    TITLE "5:cjc004_0109"
    INDEX 01 01:03:26
  TRACK 48 AUDIO
    TITLE "0:"
    INDEX 01 01:11:74
  TRACK 49 AUDIO
    TITLE "3:cjc004_0110"
    INDEX 01 01:12:56
  TRACK 50 AUDIO
    TITLE "0:"
    INDEX 01 01:13:69
  TRACK 51 AUDIO
    TITLE "4:cjc004_0111"
    INDEX 01 01:14:21
  TRACK 52 AUDIO
    TITLE "0:"
    INDEX 01 01:16:16
  TRACK 53 AUDIO
    TITLE "5:cjc004_0112"
    INDEX 01 01:16:44
  TRACK 54 AUDIO
    TITLE "0:"
    INDEX 01 01:20:32
  TRACK 55 AUDIO
    TITLE "3:cjc004_0113"
    INDEX 01 01:21:08
  TRACK 56 AUDIO
    TITLE "0:"
    INDEX 01 01:22:64
  TRACK 57 AUDIO
    TITLE "4:cjc004_0114"
    INDEX 01 01:23:24
  TRACK 58 AUDIO
    TITLE "0:"
    INDEX 01 01:24:49
  TRACK 59 AUDIO
    TITLE "5:cjc004_0115"
    INDEX 01 01:24:71
  TRACK 60 AUDIO
    TITLE "0:"
    INDEX 01 01:29:27
  TRACK 61 AUDIO
    TITLE "3:cjc004_0116"
    INDEX 01 01:30:05
  TRACK 62 AUDIO
    TITLE "0:"
    INDEX 01 01:31:12
  TRACK 63 AUDIO
    TITLE "4:cjc004_0117"
    INDEX 01 01:31:41
  TRACK 64 AUDIO
    TITLE "0:"
    INDEX 01 01:33:01
  TRACK 65 AUDIO
    TITLE "5:cjc004_0118"
    INDEX 01 01:33:21
  TRACK 66 AUDIO
    TITLE "0:"
    INDEX 01 01:39:06
  TRACK 67 AUDIO
    TITLE "3:cjc004_0119"
    INDEX 01 01:39:61
  TRACK 68 AUDIO
    TITLE "0:"
    INDEX 01 01:40:58
  TRACK 69 AUDIO
    TITLE "4:cjc004_0120"
    INDEX 01 01:41:24
  TRACK 70 AUDIO
    TITLE "0:"
    INDEX 01 01:42:45
  TRACK 71 AUDIO
    TITLE "5:cjc004_0121"
    INDEX 01 01:42:71
  TRACK 72 AUDIO
    TITLE "0:"
    INDEX 01 01:48:16
  TRACK 73 AUDIO
    TITLE "3:cjc004_0122"
    INDEX 01 01:48:71
  TRACK 74 AUDIO
    TITLE "0:"
    INDEX 01 01:50:11
  TRACK 75 AUDIO
    TITLE "4:cjc004_0123"
    INDEX 01 01:50:41
  TRACK 76 AUDIO
    TITLE "0:"
    INDEX 01 01:51:68
  TRACK 77 AUDIO
    TITLE "5:cjc004_0124"
    INDEX 01 01:52:20
  TRACK 78 AUDIO
    TITLE "0:"
    INDEX 01 01:58:60
  TRACK 79 AUDIO
    TITLE "3:cjc004_0125"
    INDEX 01 01:59:40
  TRACK 80 AUDIO
    TITLE "0:"
    INDEX 01 02:01:43
  TRACK 81 AUDIO
    TITLE "4:cjc004_0126"
    INDEX 01 02:01:72
  TRACK 82 AUDIO
    TITLE "0:"
    INDEX 01 02:03:61
  TRACK 83 AUDIO
    TITLE "5:cjc004_0127"
    INDEX 01 02:04:12
  TRACK 84 AUDIO
    TITLE "0:"
    INDEX 01 02:08:39
